<?xml version="1.0" encoding="iso-8859-1"?>
<!-- Generator: Adobe Illustrator 17.1.0, SVG Export Plug-In . SVG Version: 6.00 Build 0)  -->
<!DOCTYPE svg PUBLIC "-//W3C//DTD SVG 1.1//EN" "http://www.w3.org/Graphics/SVG/1.1/DTD/svg11.dtd">
<svg version="1.1" id="Capa_1" xmlns="http://www.w3.org/2000/svg" xmlns:xlink="http://www.w3.org/1999/xlink" x="0px" y="0px"
	 viewBox="0 0 475.825 475.825" style="enable-background:new 0 0 475.825 475.825;" xml:space="preserve">
<path d="M472.924,153.316c-1.831-1.421-4.212-1.914-6.458-1.342c-0.708,0.182-72.675,18.132-229.721,18.132
	c-156.627,0-226.644-17.937-227.328-18.116c-0.039-0.01-0.078-0.014-0.117-0.024c-0.182-0.045-0.365-0.081-0.55-0.112
	c-0.083-0.014-0.166-0.031-0.25-0.043c-0.246-0.033-0.493-0.055-0.742-0.064c-0.017-0.001-0.034-0.003-0.05-0.004
	c-0.268-0.008-0.537,0.002-0.805,0.023c-0.063,0.005-0.125,0.016-0.189,0.022c-0.205,0.021-0.41,0.049-0.613,0.088
	c-0.075,0.014-0.148,0.032-0.222,0.048c-0.191,0.042-0.38,0.091-0.568,0.148c-0.076,0.023-0.15,0.047-0.225,0.073
	c-0.183,0.062-0.364,0.133-0.543,0.21c-0.074,0.032-0.148,0.063-0.222,0.097c-0.175,0.082-0.347,0.175-0.517,0.271
	c-0.071,0.04-0.143,0.077-0.213,0.12c-0.177,0.109-0.35,0.229-0.52,0.354c-0.048,0.035-0.099,0.063-0.146,0.1
	c-0.007,0.005-0.012,0.011-0.019,0.016c-0.007,0.005-0.014,0.009-0.021,0.015c-0.212,0.166-0.412,0.342-0.602,0.525
	c-0.034,0.032-0.063,0.068-0.096,0.101c-0.162,0.163-0.317,0.33-0.462,0.504c-0.045,0.055-0.086,0.112-0.13,0.168
	c-0.125,0.159-0.244,0.321-0.355,0.489c-0.043,0.066-0.083,0.133-0.125,0.2c-0.101,0.164-0.196,0.331-0.283,0.501
	c-0.038,0.074-0.075,0.148-0.11,0.223c-0.081,0.171-0.153,0.344-0.22,0.52c-0.03,0.078-0.061,0.155-0.088,0.233
	c-0.066,0.192-0.121,0.386-0.172,0.581c-0.017,0.064-0.037,0.127-0.052,0.191c-0.059,0.26-0.106,0.522-0.137,0.786
	c-0.006,0.051-0.007,0.103-0.012,0.154c-0.021,0.217-0.035,0.434-0.038,0.652c0,0.028-0.005,0.055-0.005,0.082v10.006
	c0,20.952,6.416,41.356,19.07,60.646c12.067,18.395,29.232,34.913,51.019,49.095c44.672,29.081,103.859,45.096,166.656,45.096
	c62.919,0,122.506-16.006,167.783-45.07c22.113-14.194,39.549-30.703,51.826-49.067c12.92-19.328,19.471-39.75,19.471-60.7v-10.006
	C475.825,156.924,474.754,154.737,472.924,153.316z M309.425,235.545v-51.781c8.126-0.312,15.926-0.671,23.4-1.068v47.452
	C325.367,232.156,317.568,233.969,309.425,235.545z M264.625,241.298v-56.382c10.351-0.142,20.281-0.36,29.8-0.643v53.839
	C284.924,239.526,274.99,240.605,264.625,241.298z M249.625,185.065v56.941c-3.851,0.11-7.737,0.187-11.7,0.187
	c-3.963,0-7.852-0.074-11.7-0.186v-56.929c3.464,0.017,6.966,0.028,10.52,0.028C241.106,185.106,245.396,185.092,249.625,185.065z
	 M181.425,238.068v-53.728c9.51,0.271,19.445,0.477,29.8,0.606v56.338C200.842,240.58,190.903,239.49,181.425,238.068z
	 M143.025,230.064v-47.26c7.471,0.39,15.268,0.74,23.4,1.044v51.631C158.252,233.887,150.452,232.066,143.025,230.064z
	 M67.314,198.437c-16.052-9.584-28.417-19.225-37.235-27.015c19.764,3.338,51.886,7.64,97.946,10.522v43.691
	C102.872,217.535,82.638,207.586,67.314,198.437z M460.825,169.247c0,35.987-22.871,70.486-64.4,97.144
	c-42.889,27.531-99.598,42.693-159.68,42.693c-59.926,0-116.207-15.153-158.473-42.667c-37.305-24.285-59.274-55.215-62.768-87.929
	c9.437,8.827,23.779,20.605,43.417,32.407c18.034,10.837,42.519,22.734,73.453,31.758c0.674,0.313,1.402,0.528,2.167,0.629
	c11.525,3.279,23.927,6.153,37.214,8.424c0.572,0.173,1.174,0.272,1.795,0.302c13.812,2.291,28.574,3.918,44.271,4.683
	c0.296,0.036,0.596,0.059,0.902,0.059c0.06,0,0.118-0.008,0.177-0.009c6.201,0.286,12.53,0.452,19.023,0.452
	c6.54,0,12.92-0.163,19.171-0.448c0.01,0,0.02,0.001,0.03,0.001c0.273,0,0.542-0.016,0.807-0.045
	c31.727-1.516,59.719-6.554,84.133-13.56c0.227-0.054,0.45-0.117,0.669-0.191c39.868-11.528,70.163-28.264,91.519-43.348
	c3.383-2.39,4.189-7.069,1.799-10.453c-2.388-3.383-7.069-4.189-10.453-1.799c-18.602,13.138-44.355,27.594-77.775,38.368v-43.897
	c60.286-3.825,96.997-10.028,113-13.25V169.247z"/>
<g>
</g>
<g>
</g>
<g>
</g>
<g>
</g>
<g>
</g>
<g>
</g>
<g>
</g>
<g>
</g>
<g>
</g>
<g>
</g>
<g>
</g>
<g>
</g>
<g>
</g>
<g>
</g>
<g>
</g>
</svg>
