<?xml version="1.0" encoding="iso-8859-1"?>
<!-- Generator: Adobe Illustrator 17.1.0, SVG Export Plug-In . SVG Version: 6.00 Build 0)  -->
<!DOCTYPE svg PUBLIC "-//W3C//DTD SVG 1.1//EN" "http://www.w3.org/Graphics/SVG/1.1/DTD/svg11.dtd">
<svg version="1.1" id="Capa_1" xmlns="http://www.w3.org/2000/svg" xmlns:xlink="http://www.w3.org/1999/xlink" x="0px" y="0px"
	 viewBox="0 0 475.42 475.42" style="enable-background:new 0 0 475.42 475.42;" xml:space="preserve">
<path d="M474.009,213.529c-1.691-2.351-4.583-3.52-7.434-2.999L399,222.85v-17.741c0-4.143-3.357-7.5-7.5-7.5h-10.268v-29.486
	c0-4.143-3.357-7.5-7.5-7.5H327.5c-4.143,0-7.5,3.357-7.5,7.5v36.986v37.182l-10.705,32.118h-9.483v-43.7c0-4.143-3.357-7.5-7.5-7.5
	h-24.5v-44.264v-12.236v-10.645c0-4.143-3.357-7.5-7.5-7.5H214.55c-2.438,0-4.726,1.186-6.131,3.18l-50.871,72.183V121.742
	c0-4.143-3.357-7.5-7.5-7.5H18.066c-4.143,0-7.5,3.357-7.5,7.5v57.202c0,4.143,3.357,7.5,7.5,7.5H35.61v49.563H21.1H7.5
	c-4.143,0-7.5,3.357-7.5,7.5s3.357,7.5,7.5,7.5h7.655l18.857,80.433c3.647,17.237,19.062,29.737,36.688,29.737h298.781
	c16.372,0,31.375-8.259,40.133-22.092c0.08-0.127,0.157-0.257,0.229-0.389l64.643-117.166
	C475.886,218.995,475.7,215.881,474.009,213.529z M384,225.584l-49,8.933v-21.909h38.732H384V225.584z M335,175.622h31.232v21.986
	H335V175.622z M284.812,274.408h-49v-36.2h49V274.408z M228.312,223.208c-4.143,0-7.5,3.357-7.5,7.5v43.7h-33.083v-24.285
	l48.638-63.679h16.445v36.764H228.312z M218.439,163.563h34.372v3.145v4.736h-20.153c-0.047,0-0.092,0.006-0.138,0.007
	c-0.128,0.002-0.255,0.01-0.383,0.019c-0.125,0.009-0.25,0.017-0.374,0.032c-0.109,0.013-0.216,0.032-0.324,0.049
	c-0.138,0.023-0.276,0.045-0.411,0.075c-0.094,0.021-0.187,0.047-0.28,0.072c-0.142,0.037-0.284,0.074-0.423,0.12
	c-0.094,0.03-0.185,0.067-0.277,0.101c-0.132,0.049-0.265,0.098-0.394,0.154c-0.104,0.045-0.205,0.098-0.306,0.148
	c-0.112,0.055-0.224,0.108-0.333,0.169c-0.114,0.063-0.224,0.134-0.334,0.203c-0.092,0.058-0.186,0.114-0.275,0.176
	c-0.112,0.077-0.219,0.161-0.328,0.245c-0.085,0.066-0.17,0.129-0.252,0.198c-0.098,0.083-0.192,0.172-0.286,0.26
	c-0.088,0.082-0.176,0.164-0.26,0.25c-0.079,0.081-0.154,0.167-0.23,0.253c-0.093,0.105-0.185,0.211-0.272,0.322
	c-0.026,0.032-0.054,0.061-0.08,0.094l-50.178,65.695h-12.01L218.439,163.563z M50.61,220.766h38.095c4.143,0,7.5-3.357,7.5-7.5
	s-3.357-7.5-7.5-7.5H50.61v-19.321h75.604c4.143,0,7.5-3.357,7.5-7.5s-3.357-7.5-7.5-7.5H43.11H25.566v-42.202h116.981v118.345
	v15.433c0,4.143,3.357,7.5,7.5,7.5s7.5-3.357,7.5-7.5v-7.933h15.181v19.321h-70.173L91.841,241.3
	c-0.006-0.019-0.012-0.038-0.019-0.057l-0.014-0.044c-0.004-0.013-0.011-0.025-0.016-0.038c-0.113-0.342-0.252-0.671-0.41-0.989
	c-0.021-0.042-0.039-0.085-0.061-0.126c-0.162-0.31-0.345-0.605-0.547-0.887c-0.04-0.056-0.082-0.111-0.124-0.166
	c-0.211-0.279-0.434-0.547-0.681-0.793c-0.004-0.004-0.008-0.007-0.012-0.011c-0.245-0.243-0.511-0.464-0.787-0.672
	c-0.051-0.039-0.102-0.078-0.154-0.115c-0.281-0.2-0.574-0.382-0.881-0.542c-0.041-0.021-0.083-0.039-0.124-0.06
	c-0.297-0.148-0.605-0.278-0.923-0.386c-0.034-0.011-0.066-0.025-0.1-0.036c-0.331-0.108-0.673-0.189-1.023-0.25
	c-0.07-0.012-0.141-0.022-0.212-0.032c-0.354-0.051-0.713-0.087-1.081-0.087H50.61V220.766z M396.825,331.243
	c-6.008,9.355-16.214,14.935-27.344,14.935H70.7c-10.595,0-19.857-7.527-22.024-17.898c-0.013-0.06-0.026-0.118-0.04-0.178
	l-3.07-13.094H378.7c4.143,0,7.5-3.357,7.5-7.5s-3.357-7.5-7.5-7.5H42.049l-11.488-49h48.655l10.747,33.21
	c1.002,3.094,3.883,5.19,7.136,5.19h131.212h64H314.7c3.229,0,6.095-2.065,7.115-5.128l11.396-34.19l120.508-21.969L396.825,331.243
	z M43.063,138.188h22.643v22.643H43.063V138.188z M77.384,138.188h22.643v22.643H77.384V138.188z M134.348,160.83h-22.643v-22.643
	h22.643V160.83z"/>
<g>
</g>
<g>
</g>
<g>
</g>
<g>
</g>
<g>
</g>
<g>
</g>
<g>
</g>
<g>
</g>
<g>
</g>
<g>
</g>
<g>
</g>
<g>
</g>
<g>
</g>
<g>
</g>
<g>
</g>
</svg>
