<?xml version="1.0" encoding="iso-8859-1"?>
<!-- Generator: Adobe Illustrator 17.1.0, SVG Export Plug-In . SVG Version: 6.00 Build 0)  -->
<!DOCTYPE svg PUBLIC "-//W3C//DTD SVG 1.1//EN" "http://www.w3.org/Graphics/SVG/1.1/DTD/svg11.dtd">
<svg version="1.1" id="Capa_1" xmlns="http://www.w3.org/2000/svg" xmlns:xlink="http://www.w3.org/1999/xlink" x="0px" y="0px"
	 viewBox="0 0 474.598 474.598" style="enable-background:new 0 0 474.598 474.598;" xml:space="preserve">
<path d="M155.54,266.523l-0.316-0.001c-19.047,0-34.682,15.497-34.852,34.545c-0.171,19.221,15.325,34.996,34.544,35.168
	l0.316,0.001c19.047,0,34.682-15.497,34.852-34.545C190.255,282.471,174.759,266.695,155.54,266.523z M155.232,321.236l-0.183-0.001
	c-10.948-0.098-19.775-9.085-19.678-20.034c0.097-10.851,9.002-19.679,19.852-19.679l0.183,0.001
	c10.948,0.098,19.775,9.085,19.678,20.034C174.987,312.408,166.082,321.236,155.232,321.236z M254.025,266.523l-0.316-0.001
	c-19.047,0-34.682,15.497-34.852,34.545c-0.171,19.221,15.325,34.996,34.544,35.168l0.316,0.001
	c19.046,0,34.68-15.497,34.852-34.545C288.74,282.471,273.244,266.695,254.025,266.523z M253.718,321.236l-0.183-0.001
	c-10.948-0.098-19.775-9.085-19.678-20.034c0.097-10.851,9.002-19.679,19.852-19.679l0.183,0.001
	c10.948,0.098,19.775,9.085,19.678,20.033C273.472,312.408,264.566,321.236,253.718,321.236z M443.077,231.394
	c-20.325-19.14-46.871-28.762-74.737-27.082l-31.933,1.921l-6.606-24.104c-0.015-0.055-0.03-0.108-0.047-0.163
	c-5.769-19.324-23.883-32.821-44.05-32.821h-24.491v-36.296c0-2.405,1.956-4.361,4.361-4.361h20.968c4.143,0,7.5-3.357,7.5-7.5
	V68.157c0-4.143-3.357-7.5-7.5-7.5h-32.829c-22.237,0-40.328,18.092-40.328,40.329v48.157h-8.273
	c-25.349,0-45.971,20.622-45.971,45.971v21.778l-46.572,2.801c-6.853,0.412-13.474,1.642-19.781,3.578l-13.26-21.342
	c-1.368-2.202-3.777-3.542-6.37-3.542H41.394c-4.143,0-7.5,3.357-7.5,7.5v85.162c-0.305,1.922-0.547,3.863-0.72,5.823H15v-25.329
	c0-4.143-3.357-7.5-7.5-7.5S0,267.4,0,271.543V337.2c0,4.143,3.357,7.5,7.5,7.5s7.5-3.357,7.5-7.5v-25.328h18.174
	c0.212,2.405,0.533,4.779,0.944,7.125c-0.141,0.574-0.224,1.171-0.224,1.789v85.654c0,4.143,3.357,7.5,7.5,7.5h31.764
	c2.593,0,5.002-1.34,6.37-3.542l15.151-24.386c5.737,1.616,11.717,2.667,17.89,3.038l255.771,15.381
	c2.08,0.125,4.152,0.188,6.216,0.188c25.58,0,49.713-9.559,68.521-27.27c20.326-19.141,31.521-45.058,31.521-72.978
	S463.403,250.534,443.077,231.394z M48.894,213.387h20.094l9.726,15.653c-11.86,6.154-22.066,15.01-29.82,25.738V213.387z
	 M47.828,304.372c0-2.16,0.108-4.297,0.302-6.41h33.941v12.819H48.13C47.936,308.668,47.828,306.532,47.828,304.372z M68.987,398.94
	H48.894v-44.975c8.121,11.235,18.93,20.42,31.513,26.595L68.987,398.94z M432.794,366.429c-5.876,5.533-12.374,10.107-19.308,13.71
	c-0.287-0.055-0.579-0.099-0.878-0.12c-33.397-2.419-59.559-36.501-59.559-77.591c0-20.903,6.687-40.532,18.828-55.27
	c2.633-3.196,2.177-7.924-1.021-10.558c-3.195-2.632-7.922-2.177-10.558,1.021c-14.348,17.416-22.25,40.432-22.25,64.807
	c0,38.883,20.405,72.524,49.466,86.194c-5.966,0.913-12.08,1.211-18.274,0.837l-255.771-15.381
	c-29.365-1.765-53.637-21.619-62.259-48.297h38.361c4.143,0,7.5-3.357,7.5-7.5v-27.819c0-4.143-3.357-7.5-7.5-7.5H51.21
	c8.622-26.678,32.893-46.531,62.259-48.297l183.006-11.005c4.135-0.248,7.285-3.802,7.036-7.937
	c-0.248-4.135-3.802-7.311-7.937-7.036l-121.434,7.302v-20.875c0-17.077,13.894-30.971,30.971-30.971h25.688
	c4.143,0,7.5-3.357,7.5-7.5s-3.357-7.5-7.5-7.5h-2.414v-48.157c0-13.967,11.362-25.329,25.328-25.329h25.329v17.829h-13.468
	c-10.676,0-19.361,8.686-19.361,19.361v43.796c0,4.143,3.357,7.5,7.5,7.5h31.991c13.561,0,25.742,9.057,29.653,22.035l8.191,29.888
	c0.937,3.42,4.154,5.724,7.684,5.504l38.008-2.286c23.708-1.432,46.271,6.754,63.554,23.03
	c17.284,16.276,26.804,38.315,26.804,62.058S450.079,350.152,432.794,366.429z"/>
<g>
</g>
<g>
</g>
<g>
</g>
<g>
</g>
<g>
</g>
<g>
</g>
<g>
</g>
<g>
</g>
<g>
</g>
<g>
</g>
<g>
</g>
<g>
</g>
<g>
</g>
<g>
</g>
<g>
</g>
</svg>
